<?xml version="1.0" encoding="UTF-8" standalone="no"?>
<!DOCTYPE svg PUBLIC "-//W3C//DTD SVG 1.1//EN" "http://www.w3.org/Graphics/SVG/1.1/DTD/svg11.dtd">
<svg width="100%" height="100%" viewBox="0 0 108 108" version="1.1" xmlns="http://www.w3.org/2000/svg" xmlns:xlink="http://www.w3.org/1999/xlink" xml:space="preserve" xmlns:serif="http://www.serif.com/" style="fill-rule:evenodd;clip-rule:evenodd;stroke-linejoin:round;stroke-miterlimit:2;">
    <g transform="matrix(0.140244,0,0,0.141523,0.347961,0.506288)">
        <rect x="-2.481" y="-3.577" width="770.084" height="763.126" style="fill:rgb(224,199,178);"/>
    </g>
    <g transform="matrix(0.089135,0,0,0.0979555,20.2337,17.3055)">
        <g transform="matrix(11.2189,0,0,10.2087,-227.001,-146.041)">
            <path d="M38.366,21.86L47.109,25.508L53.942,23.945L60.021,25.218L69.633,21.918L70.965,28.287L69.17,35.177L69.807,42.415L67.027,49.595L63.901,52.606L65.29,56.369L68.938,52.027L72.875,51.737L74.786,54.574L73.339,56.717L71.022,58.801L72.065,65.46L68.127,74.666L68.938,77.04L67.548,78.488L59.963,78.43L57.531,80.109L55.157,79.414L53.826,78.372L51.568,79.993L47.63,78.546L41.029,78.893L39.061,77.272L39.003,74.435L37.382,70.613L36.976,66.676L41.203,58.28L43.461,52.143L38.945,46.874L37.555,38.883L38.366,34.888L36.745,29.851L37.15,23.713L38.366,21.86Z" style="fill:rgb(255,189,138);"/>
        </g>
        <g transform="matrix(1.3307,0,0,1.87381,-124.478,-387.331)">
            <ellipse cx="376.006" cy="443.714" rx="16.186" ry="11.206" style="fill:white;"/>
        </g>
        <g transform="matrix(11.2189,0,0,10.2087,-227.001,-146.041)">
            <path d="M43.809,52.085C52.089,59.265 76.639,54.98 67.317,31.645C70.732,48.425 60.469,58.241 43.809,52.085Z" style="fill:rgb(220,165,123);"/>
        </g>
        <path d="M200.596,211.859L188.356,105.373L251.595,140.868L200.596,211.859Z" style="fill:rgb(255,167,167);"/>
        <path d="M497.021,144.863L550.811,215.886L564.128,102.823L497.021,144.863Z" style="fill:rgb(255,167,167);"/>
        <g transform="matrix(11.2189,0,0,10.2087,-227.001,-146.041)">
            <path d="M37.787,41.489C37.305,26.808 53.511,19.603 62.974,27.071C49.201,23.253 41.401,27.78 37.787,41.489Z" style="fill:white;"/>
        </g>
        <g transform="matrix(0.1,0,0,-0.1,0,761)">
            <path d="M5436,6920C5243,6886 4781,6704 4591,6588C4530,6550 4523,6548 4495,6560C4380,6607 4160,6661 4010,6680C3892,6694 3665,6692 3540,6676C3401,6657 3188,6608 3108,6576C3072,6562 3037,6550 3028,6550C3020,6550 2935,6589 2839,6638C2523,6796 2231,6900 2050,6916C1993,6922 1975,6919 1938,6901C1860,6863 1833,6802 1803,6585C1782,6437 1779,6096 1798,5965C1827,5763 1867,5615 1932,5470L1956,5415L1928,5328C1913,5280 1897,5216 1894,5185C1890,5155 1886,5130 1885,5130C1884,5130 1866,5137 1846,5145C1792,5168 1676,5190 1611,5190C1540,5190 1515,5169 1515,5110C1515,5061 1549,5023 1599,5014C1619,5011 1687,4998 1750,4985L1865,4963L1868,4849C1870,4786 1875,4720 1880,4701C1885,4682 1888,4665 1887,4664C1886,4663 1813,4649 1726,4632C1555,4598 1527,4585 1515,4529C1508,4498 1530,4446 1555,4436C1587,4424 1630,4430 1784,4470C1870,4492 1942,4510 1945,4510C1948,4510 1950,4503 1950,4495C1950,4465 1992,4353 2037,4265C2091,4159 2206,4005 2310,3899C2384,3824 2490,3740 2510,3740C2528,3740 2520,3706 2476,3600C2302,3185 2219,3017 2067,2780C1966,2624 1907,2513 1871,2413C1798,2213 1788,1951 1847,1765C1868,1697 1942,1555 1988,1496C2008,1469 2029,1441 2034,1435C2040,1427 2039,1396 2030,1352C2015,1268 2020,1217 2051,1154C2100,1058 2194,993 2345,954C2403,939 2454,936 2640,936C2863,936 2972,949 3031,981C3048,990 3057,985 3090,947C3196,827 3367,773 3511,816C3599,842 3654,875 3709,935L3760,992L3824,932C3935,829 4054,786 4175,807C4269,823 4371,874 4425,931C4468,976 4470,978 4507,969C4675,930 5017,914 5150,939C5186,946 5251,966 5295,983C5431,1036 5520,1148 5520,1265C5520,1303 5484,1426 5470,1435C5465,1438 5483,1473 5509,1513C5588,1631 5739,1894 5770,1967C5841,2137 5874,2359 5851,2510C5844,2551 5817,2664 5789,2760C5702,3062 5702,3062 5885,3150C6092,3249 6170,3348 6178,3522C6182,3602 6180,3614 6152,3672C6118,3745 6051,3815 5982,3853C5923,3885 5811,3910 5727,3910C5484,3909 5217,3742 5105,3521C5073,3458 5079,3452 5016,3604L4971,3710L5053,3769C5269,3926 5483,4205 5564,4435C5586,4497 5591,4505 5612,4502C5641,4497 5816,4455 5890,4435C5958,4416 6003,4423 6030,4457C6056,4491 6056,4531 6028,4557C5994,4587 5997,4586 5809,4630C5713,4653 5634,4673 5632,4675C5630,4677 5633,4687 5639,4697C5644,4708 5650,4771 5651,4837L5653,4957L5804,4989C5977,5026 6015,5041 6035,5081C6066,5139 6045,5192 5985,5209C5958,5216 5924,5212 5818,5185C5745,5167 5678,5149 5669,5145C5655,5140 5650,5149 5640,5192C5633,5221 5614,5285 5598,5334L5568,5424L5598,5484C5659,5608 5718,5832 5746,6050C5772,6248 5751,6609 5705,6765C5667,6895 5580,6946 5436,6920ZM5534,6728C5565,6650 5564,6644 5512,6625C5368,6571 5216,6477 5069,6353L4978,6277L4952,6298C4937,6310 4877,6350 4818,6387C4759,6425 4712,6460 4713,6465C4719,6490 5078,6649 5245,6701C5360,6736 5454,6759 5488,6759C5516,6760 5523,6755 5534,6728ZM2219,6714C2367,6672 2482,6629 2640,6558C2765,6501 2820,6472 2820,6462C2820,6458 2789,6438 2751,6418C2713,6397 2654,6358 2620,6329C2549,6270 2561,6268 2445,6369C2337,6464 2186,6560 2075,6605C1967,6649 1969,6646 1991,6718C2001,6748 2004,6750 2048,6750C2073,6750 2150,6734 2219,6714ZM4068,6505C4077,6502 4080,6433 4080,6210C4080,5971 4083,5914 4095,5890C4114,5854 4147,5830 4178,5830C4211,5830 4265,5887 4280,5935C4287,5958 4294,6074 4297,6212L4303,6450L4329,6443C4384,6430 4498,6386 4565,6353C4712,6279 4978,6083 5076,5976C5247,5791 5397,5490 5472,5188C5484,5139 5491,5097 5488,5094C5485,5091 5431,5079 5367,5066C5203,5032 5162,5001 5186,4931C5202,4886 5240,4876 5318,4894C5355,4902 5410,4912 5441,4916C5496,4922 5498,4921 5494,4899C5493,4886 5486,4832 5479,4780C5473,4728 5466,4682 5464,4679C5462,4675 5443,4676 5423,4681C5356,4696 5232,4702 5211,4691C5152,4659 5142,4607 5190,4567C5218,4543 5262,4529 5361,4514C5400,4507 5402,4506 5396,4478C5377,4381 5257,4193 5125,4051C5071,3993 4923,3867 4844,3813C4728,3731 4500,3622 4352,3576C4134,3508 3855,3474 3668,3491C3271,3528 2980,3619 2720,3788C2497,3932 2361,4065 2213,4285C2156,4370 2088,4499 2095,4511C2099,4516 2121,4520 2144,4520C2222,4520 2292,4539 2322,4567C2374,4617 2348,4691 2274,4706C2257,4709 2197,4704 2141,4695C2085,4685 2037,4679 2035,4681C2030,4686 2010,4871 2010,4910C2010,4940 2010,4940 2053,4934C2076,4930 2121,4917 2153,4903C2184,4890 2231,4877 2256,4873C2316,4865 2350,4894 2350,4954C2350,5021 2335,5031 2198,5060C2064,5088 2030,5099 2030,5115C2030,5183 2101,5424 2160,5553C2315,5894 2522,6111 2885,6314C3009,6383 3243,6468 3251,6448C3252,6446 3255,6337 3259,6205C3267,5951 3274,5914 3322,5863C3374,5808 3464,5853 3481,5942C3499,6034 3485.81,6521.85 3466.81,6509.85C3461.81,6506.85 3399,6489 3529,6510C3559,6515 3649,6518 3729,6518C3855,6518 3872.01,6549.42 3824.01,6541.42C3766.01,6531.42 3733.64,6543.79 3685.64,6548.79L3665,6505L3666,6230C3666,6044 3670,5944 3678,5920C3695,5869 3731,5831 3766,5824C3791,5819 3804,5824 3833,5850C3854,5868 3874,5897 3880,5918C3885,5939 3890,6076 3890,6236C3890,6390 3892,6519 3895,6521C3900,6527 4047,6513 4068,6505ZM4203,6468C4283,6447 4289.78,6448.94 4289.78,6424.94C4289.78,6402.94 4301.7,6480.23 4265.7,6480.23C4243.7,6479.23 4228.39,6553.44 4218.3,6479.26C4217.76,6475.3 4191.39,6482.54 4187.39,6493.54C4183.39,6502.54 4178.06,6515.56 4168.06,6511.56C4160.06,6508.56 4141.36,6501.54 4144.36,6507.54C4147.36,6513.54 4141.69,6518.88 4133.69,6518.88C4115.69,6518.88 4085,6490 4103,6490C4109,6490 4154,6480 4203,6468ZM2102,6399C2159,6370 2327,6251 2383,6201L2410,6176L2346,6110C2255,6018 2151,5876 2094,5765C2067,5713 2043,5670 2040,5670C2031,5670 1980,5854 1970,5925C1957,6021 1945,6355 1954,6412L1961,6459L2011,6440C2039,6429 2079,6411 2102,6399ZM5580,6290C5580,6050 5555,5854 5504,5698L5489,5651L5449,5728C5397,5828 5279,5994 5186,6096L5112,6177L5148,6216C5168,6238 5201,6268 5220,6282C5272,6321 5427,6410 5490,6436C5585,6476 5580,6484 5580,6290ZM5844,3726C5949,3694 6000,3632 6000,3536C6000,3413 5953,3364 5765,3290C5599,3224 5534,3067 5589,2864C5599,2826 5627,2725 5650,2640C5688,2503 5693,2473 5692,2383C5692,2327 5689,2276 5685,2269C5681,2263 5665,2307 5650,2366C5610,2521 5524,2708 5441,2819C5343,2949 5170,3258 5170,3302C5170,3315 5191,3363 5217,3410C5303,3565 5462,3695 5605,3729C5667,3743 5792,3742 5844,3726ZM2929,3491C3039,3441 3288,3366 3396,3349L3476,3337L3457,3281C3389,3080 3556,2856 3775,2856C3826,2856 3859,2862 3895,2879C3961,2908 4043,2990 4071,3054C4099,3120 4107,3228 4087,3293C4072,3339 4072,3340 4093,3344C4189,3361 4339,3396 4405,3417C4509,3450 4700,3532 4772,3575L4830,3609L4880,3504C4907,3446 4944,3362 4961,3317C5021,3167 5227,2768 5277,2705C5450,2491 5525,2285 5524,2025C5524,1903 5515,1864 5465,1746C5448,1707 5371,1580 5364,1580C5362,1580 5341,1593 5318,1610C5253,1656 5123,1690 5015,1690C4926,1690 4775,1670 4752,1656C4734,1645 4737,1659 4774,1793C4816,1945 4910,2369 4910,2410C4910,2465 4843,2506 4795,2480C4760,2461 4745,2421 4715,2270C4701,2196 4678,2088 4664,2030C4609,1799 4600,1760 4570,1635C4525,1443 4496,1359 4428,1221C4355,1072 4294,1004 4211,977C4145,956 4118,956 4051,976C3985,995 3914,1058 3900,1109C3881,1179 3891,1255 3989,1752C4142,2526 4138,2497 4101,2533C4072,2562 4015,2559 3983,2528C3963,2508 3955,2478 3929,2325C3913,2226 3890,2107 3880,2060C3869,2013 3846,1894 3830,1795C3813,1696 3793,1587 3785,1552C3777,1517 3770,1477 3770,1463C3770,1402 3753,1466 3704,1713C3675,1857 3645,2004 3636,2040C3622,2100 3580,2343 3565,2452C3552,2549 3484,2587 3421,2534C3383,2502 3383,2492 3415,2308C3430,2229 3448,2127 3456,2080C3464,2033 3485,1934 3501,1860C3518,1786 3540,1685 3551,1635C3562,1586 3577,1520 3585,1490C3624,1336 3641,1140 3619,1083C3591,1008 3492,953 3400,962C3374,965 3323,981 3287,997C3191,1043 3128,1129 3051,1322C2980,1501 2876,1941 2825,2276C2811,2367 2795,2450 2790,2461C2765,2507 2696,2514 2655,2473C2630,2448 2628,2440 2633,2390C2636,2360 2666,2200 2700,2035C2781,1645 2779,1665 2749,1674C2692,1691 2575,1699 2502,1690C2383,1677 2241,1620 2173,1558L2152,1538L2127,1576C2073,1663 2040,1730 2009,1820C1976,1913 1975,1918 1975,2085C1975,2245 1977,2260 2004,2340C2043,2458 2077,2522 2188,2690C2317,2884 2490,3223 2575,3446C2603,3520 2637,3589 2657,3612C2670,3627 2678,3624 2755,3580C2801,3553 2879,3513 2929,3491ZM3910,3264C3937,3209 3935,3156 3905,3103C3862,3031 3789,3006 3716,3039C3651,3067 3624,3098 3610,3162C3599,3211 3600,3221 3617,3261L3637,3305L3891,3305L3910,3264ZM5092,1519C5236,1488 5359,1364 5360,1248C5360,1215 5354,1206 5311,1171C5241,1117 5197,1109 4944,1107C4732,1105 4608,1113 4581,1129C4571,1135 4579,1159 4614,1231C4639,1283 4667,1356 4678,1394L4697,1464L4751,1483C4889,1532 4984,1542 5092,1519ZM2735,1487L2834,1454L2858,1385C2871,1346 2898,1273 2917,1222C2936,1170 2950,1126 2947,1124C2929,1106 2500,1090 2500,1108C2500,1112 2518,1141 2540,1174C2562,1206 2580,1241 2580,1252C2580,1280 2552,1317 2521,1330C2487,1344 2442,1326 2416,1288C2397,1262 2394,1159 2411,1128C2422,1108 2420,1108 2374,1115C2347,1118 2307,1130 2285,1139C2243,1158 2170,1230 2170,1253C2170,1279 2210,1384 2228,1403C2295,1478 2405,1519 2540,1519C2620,1519 2650,1514 2735,1487Z" style="fill-rule:nonzero;"/>
            <path d="M2789,5367C2707,5339 2652,5302 2594,5235C2515,5145 2480,5049 2515,5020C2537,5002 2617,4995 2635,5010C2643,5017 2664,5049 2682,5082C2721,5155 2784,5204 2868,5225C2932,5242 2992,5235 3049,5206C3087,5186 3149,5121 3171,5077C3200,5021 3225,5000 3264,5000C3311,5000 3343,5029 3342,5068C3340,5138 3230,5279 3132,5336C3034,5394 2902,5406 2789,5367Z" style="fill-rule:nonzero;"/>
            <path d="M4495,5372C4387,5332 4306,5265 4250,5171C4198,5083 4194,5061 4221,5027C4239,5002 4248,4999 4289,5002C4332,5005 4337,5008 4366,5055C4418,5137 4459,5178 4518,5207C4647,5270 4765,5225 4863,5074C4905,5011 4935,4996 4986,5012C5014,5021 5027,5033 5034,5053C5057,5117 4925,5284 4800,5350C4741,5381 4726,5385 4640,5387C4566,5390 4534,5386 4495,5372Z" style="fill-rule:nonzero;"/>
            <path d="M3654,4981C3609,4961 3600,4946 3600,4895C3600,4868 3610,4851 3646,4813C3688,4768 3691,4762 3687,4723C3675,4613 3541,4536 3454,4589C3417,4612 3370,4670 3370,4693C3370,4720 3333,4750 3299,4750C3257,4750 3210,4703 3210,4660C3210,4619 3251,4539 3297,4494C3346,4445 3428,4409 3504,4403C3583,4397 3657,4424 3726,4484L3777,4529L3818,4491C3945,4370 4109,4368 4238,4485C4280,4522 4340,4627 4340,4662C4340,4698 4311,4738 4277,4749C4225,4767 4194,4750 4179,4698C4154,4613 4106,4570 4034,4570C3960,4570 3870,4650 3854,4728C3848,4758 3852,4765 3893,4805C3969,4878 3966,4952 3885,4986C3835,5007 3705,5004 3654,4981Z" style="fill-rule:nonzero;"/>
            <path d="M4941,1299C4921,1281 4919,1271 4924,1237C4928,1214 4940,1179 4952,1158C4976,1115 5008,1108 5060,1135C5121,1167 5128,1234 5076,1286C5034,1328 4978,1333 4941,1299Z" style="fill-rule:nonzero;"/>
            <path d="M352,5797C309,5752 183,5456 150,5324C99,5116 86,4998 86,4725C85,4352 114,4199 252,3861C327,3675 354,3643 419,3656C459,3664 481,3690 487,3740C492,3775 488,3787 461,3826C412,3893 366,4001 326,4139C282,4291 264,4397 248,4601C221,4959 305,5382 451,5625C472,5659 492,5699 496,5714C504,5746 484,5797 459,5810C427,5828 375,5822 352,5797Z" style="fill-rule:nonzero;"/>
            <path d="M7107,5790C7093,5779 7077,5757 7072,5741C7063,5715 7068,5698 7120,5593C7184,5463 7241,5309 7271,5184C7293,5089 7320,4840 7320,4722C7320,4636 7297,4388 7279,4285C7257,4154 7173,3938 7102,3826C7063,3765 7061,3722 7094,3684C7124,3649 7180,3647 7215,3680C7269,3731 7383,4007 7432,4204C7505,4503 7510,4866 7445,5185C7414,5337 7342,5551 7273,5697C7222,5806 7166,5836 7107,5790Z" style="fill-rule:nonzero;"/>
            <path d="M860,5754C776,5683 632,5309 601,5080C595,5039 588,4985 584,4960C574,4888 577,4543 589,4449C595,4402 607,4337 615,4304C665,4111 764,3862 817,3800C846,3766 857,3760 890,3760C970,3760 996,3852 941,3939C888,4021 810,4196 790,4276C779,4320 764,4416 755,4490C708,4909 773,5285 946,5581C999,5673 1003,5709 961,5751C925,5787 901,5788 860,5754Z" style="fill-rule:nonzero;"/>
            <path d="M6621,5744C6573,5704 6578,5670 6659,5500C6781,5243 6818,5088 6827,4805C6832,4641 6830,4595 6811,4471C6777,4252 6718,4086 6631,3964C6580,3892 6577,3852 6619,3809C6653,3776 6669,3774 6716,3796C6794,3833 6918,4116 6974,4385C7026,4637 7014,4967 6944,5239C6918,5339 6817,5600 6772,5683C6724,5771 6676,5791 6621,5744Z" style="fill-rule:nonzero;"/>
            <path d="M6164,5690C6136,5679 6110,5642 6110,5614C6110,5602 6139,5534 6175,5464C6300,5215 6343,5039 6344,4780C6346,4472 6299,4293 6164,4089C6107,4003 6102,3975 6132,3930C6151,3902 6163,3894 6194,3892C6227,3889 6237,3894 6269,3928C6357,4020 6474,4315 6504,4521C6545,4799 6508,5118 6403,5380C6296,5649 6240,5722 6164,5690Z" style="fill-rule:nonzero;"/>
            <path d="M1328,5670C1314,5659 1279,5606 1252,5553C1161,5375 1107,5222 1081,5070C1017,4682 1062,4361 1227,4038C1285,3923 1315,3890 1362,3890C1406,3890 1426,3905 1444,3951C1464,4001 1459,4019 1404,4091C1350,4162 1307,4246 1281,4335C1252,4431 1220,4657 1220,4760C1221,5007 1297,5295 1413,5487C1432,5519 1454,5564 1461,5588C1472,5627 1471,5633 1453,5658C1426,5694 1366,5700 1328,5670Z" style="fill-rule:nonzero;"/>
        </g>
        <g transform="matrix(10.3099,-7.11808,6.62648,24.849,-478.225,-456.514)">
            <path d="M46.356,43.226C46.356,42.842 45.737,42.531 44.973,42.531L44.439,42.531C43.676,42.531 43.056,42.842 43.056,43.226C43.056,43.609 43.676,43.921 44.439,43.921L44.973,43.921C45.737,43.921 46.356,43.609 46.356,43.226Z" style="fill:rgb(255,143,150);"/>
        </g>
        <g transform="matrix(-10.3099,-7.11808,-6.62648,24.849,1231.5,-456.514)">
            <path d="M46.356,43.226C46.356,42.842 45.737,42.531 44.973,42.531L44.439,42.531C43.676,42.531 43.056,42.842 43.056,43.226C43.056,43.609 43.676,43.921 44.439,43.921L44.973,43.921C45.737,43.921 46.356,43.609 46.356,43.226Z" style="fill:rgb(255,143,150);"/>
        </g>
    </g>
</svg>
